:SAMPLES-PER-SECOND 30
:FRAME-RANGE 1-1700
:FULLY-SPECIFIED
:DEGREES
1541
root  11.5442 38.9132 54.0491 -2.40338 -21.6994 1.09161
RightUpLeg  13.1767 -5.40203 -3.50675
RightLeg  8.27637 5.84963 -1.85135
RightFoot  -18.6177 0.0980331 3.52474
RightToes  -1.16417e-010 0 -3.6325e-017
Spine  9.47671 2.79341 8.48186
Spine1  -3.17106 4.81761 -8.40799
HEad  1.05375 -17.8642 5.11464
LeftShoulder1  0.924649 0.919685 -29.6948
LeftArm  23.9846 34.649 -28.1946
LeftForeArm  -2.51104 -10.8482 -15.5985
LeftHand  0.416689 0.45156 -9.93343
RightShoulder  11.8154 18.3365 47.2918
RightArm  24.1807 7.86963 21.5598
RightForeArm  8.44325 14.2174 11.5509
RightHand  0.533283 3.80323 6.4628
LeftUpLeg  -14.3603 10.7093 10.5066
LeftLeg  1.12648 -3.24691 -2.96726
LeftFoot  2.47069 1.80187 -14.9316
LeftToes  1.03528e-008 1.55373e-010 -2.26046e-010
1542
root  11.7383 38.4884 55.6929 -3.24915 -22.5764 1.41687
RightUpLeg  15.6684 -4.95643 -5.16131
RightLeg  9.6495 6.62465 -2.64242
RightFoot  -21.3839 0.325004 5.34655
RightToes  -1.16417e-010 0 -3.6325e-017
Spine  9.07149 2.64958 7.01629
Spine1  -2.72567 4.52258 -7.87952
HEad  2.16957 -20.4458 5.4207
LeftShoulder1  0.923255 0.91736 -29.6074
LeftArm  21.7468 35.1354 -27.5501
LeftForeArm  0.837697 -7.85621 -17.0485
LeftHand  0.382946 0.690878 -9.644
RightShoulder  11.6021 18.056 47.0405
RightArm  31.8238 7.72007 21.9147
RightForeArm  -0.371953 20.294 6.79587
RightHand  0.531127 3.73561 6.48834
LeftUpLeg  -13.3072 11.3641 9.71839
LeftLeg  2.74283 -1.62892 -3.48521
LeftFoot  8.29818 2.72074 -15.9269
LeftToes  1.03528e-008 1.55373e-010 -2.26046e-010
1543
root  11.8715 38.1552 57.1582 -4.5097 -23.8045 2.49591
RightUpLeg  17.1421 3.21862 -4.64693
RightLeg  12.9099 -0.050777 -3.42245
RightFoot  -23.2038 0.782767 9.03653
RightToes  -1.16417e-010 0 -3.6325e-017
Spine  10.0827 2.64014 3.71811
Spine1  -3.53952 4.07821 -7.00253
HEad  3.26952 -22.6707 5.88934
LeftShoulder1  0.889744 1.01871 -29.7148
LeftArm  21.8363 34.3567 -26.8188
LeftForeArm  1.66166 -5.05851 -18.2862
LeftHand  0.347532 1.08672 -9.6468
RightShoulder  11.4363 17.4669 47.6934
RightArm  30.0921 7.53962 21.1617
RightForeArm  1.64245 24.885 5.24526
RightHand  0.549217 3.78199 6.68019
LeftUpLeg  -14.3554 17.2565 7.56236
LeftLeg  10.3293 -6.78847 -4.61346
LeftFoot  9.69444 1.98465 -10.9837
LeftToes  1.03528e-008 1.55373e-010 -2.26046e-010
1544
root  11.9393 37.8256 58.4209 -6.03131 -24.4293 4.93549
RightUpLeg  14.8017 11.5365 -5.4832
RightLeg  23.7472 -8.05642 -4.07938
RightFoot  -23.8878 1.60841 16.02
RightToes  -1.16417e-010 0 -3.6325e-017
Spine  10.9591 2.66182 -1.35363
Spine1  -3.64156 3.28581 -4.86051
HEad  3.09467 -24.3939 7.73208
LeftShoulder1  0.912589 1.09638 -31.8352
LeftArm  32.2244 28.9965 -25.0523
LeftForeArm  -8.14571 -5.01286 -19.3807
LeftHand  0.280032 1.85164 -9.68636
RightShoulder  11.5133 16.6753 49.9254
RightArm  25.1067 8.26324 19.9363
RightForeArm  6.44293 27.6673 5.62717
RightHand  0.47443 3.50388 5.93742
LeftUpLeg  -16.4357 24.456 3.08152
LeftLeg  19.0835 -13.2869 -4.74219
LeftFoot  3.84398 1.46143 -11.1129
LeftToes  1.03528e-008 1.55373e-010 -2.26046e-010
1545
root  12.1332 37.8203 59.495 -6.4433 -26.6594 5.40027
RightUpLeg  9.11345 9.37707 -8.12692
RightLeg  35.4697 -7.00541 -5.58573
RightFoot  -18.3897 1.11158 19.9042
RightToes  -1.16417e-010 0 -3.6325e-017
Spine  11.506 2.53481 -0.000994789
Spine1  -2.68265 3.73285 -8.7259
HEad  2.70433 -25.6103 8.2523
LeftShoulder1  1.08028 0.73354 -32.9269
LeftArm  34.2813 22.14 -24.6565
LeftForeArm  -7.84801 -5.60136 -19.269
LeftHand  0.218447 2.33844 -9.00169
RightShoulder  11.591 16.5696 50.5247
RightArm  21.2264 7.37134 21.0506
RightForeArm  7.63421 27.7673 5.58588
RightHand  0.333652 3.20773 4.26836
LeftUpLeg  -15.673 23.9485 2.9956
LeftLeg  22.1455 -10.8905 -4.50784
LeftFoot  0.650539 1.07878 -10.2892
LeftToes  1.03528e-008 1.55373e-010 -2.26046e-010
1546
root  12.2077 38.0814 60.6143 -6.01776 -29.359 4.76489
RightUpLeg  1.5923 7.43653 -8.16418
RightLeg  47.539 -8.90075 -10.5858
RightFoot  -7.61764 -0.342448 8.9201
RightToes  -1.16417e-010 0 -3.6325e-017
Spine  10.9938 2.39568 0.656654
Spine1  -2.03826 3.77436 -8.80659
HEad  3.19703 -24.7905 6.79945
LeftShoulder1  1.19284 0.465775 -33.1977
LeftArm  30.076 17.1006 -25.7221
LeftForeArm  -4.06051 -4.06791 -19.4242
LeftHand  0.196793 2.21482 -7.80801
RightShoulder  11.8083 17.0373 50.2963
RightArm  21.2032 6.15954 22.3351
RightForeArm  5.52877 27.4428 5.62415
RightHand  0.274 3.06372 3.53406
LeftUpLeg  -13.6317 23.7518 3.89027
LeftLeg  22.2219 -8.54804 -3.48874
LeftFoot  -1.5961 0.892436 -10.3366
LeftToes  1.03528e-008 1.55373e-010 -2.26046e-010
